<svg width="22" height="21" viewBox="0 0 22 21" fill="none" xmlns="http://www.w3.org/2000/svg">
<path fill-rule="evenodd" clip-rule="evenodd" d="M11.0042 2.93062C12.0616 1.92764 13.3467 1 15.2623 1C16.0185 1 16.7668 1.15186 17.4643 1.4464C18.1617 1.74092 18.7942 2.17208 19.326 2.71431C19.8578 3.25617 20.2788 3.89847 20.5656 4.60406C20.8526 5.30976 21 6.06552 21 6.82833C21 7.59113 20.8526 8.34689 20.5656 9.05259C20.2787 9.75825 19.8577 10.4006 19.3258 10.9425C19.3258 10.9426 19.3259 10.9425 19.3258 10.9425L10.9998 19.4278L2.67373 10.9425C1.59994 9.84819 1 8.36792 1 6.82833C1 5.28873 1.59995 3.80847 2.67373 2.71414C3.74815 1.61917 5.20946 1.00047 6.73725 1.00047C8.73186 1.00047 9.97652 1.93604 11.0042 2.93062ZM15.2623 3C13.821 3 12.9537 3.78129 11.7135 5.04513L10.9998 5.77256L10.286 5.04513C9.04123 3.77656 8.26841 3.00047 6.73725 3.00047C5.75225 3.00047 4.80367 3.39907 4.10128 4.11489C3.39826 4.83136 3 5.80707 3 6.82833C3 7.84959 3.39826 8.82529 4.10128 9.54176L10.9998 16.5722L17.8983 9.54176C18.2463 9.18723 18.5235 8.7651 18.7129 8.29932C18.9023 7.83352 19 7.33361 19 6.82833C19 6.32304 18.9023 5.82314 18.7129 5.35733C18.5235 4.89156 18.2465 4.46959 17.8984 4.11506C17.5506 3.7604 17.1383 3.47975 16.6862 3.28886C16.2342 3.09799 15.7504 3 15.2623 3Z" fill="#25282B"/>
<path d="M19.3258 10.9425C19.8577 10.4006 20.2787 9.75825 20.5656 9.05259C20.8526 8.34689 21 7.59113 21 6.82833C21 6.06552 20.8526 5.30976 20.5656 4.60406C20.2788 3.89847 19.8578 3.25617 19.326 2.71431C18.7942 2.17208 18.1617 1.74092 17.4643 1.4464C16.7668 1.15186 16.0185 1 15.2623 1C13.3467 1 12.0616 1.92764 11.0042 2.93062C9.97652 1.93604 8.73186 1.00047 6.73725 1.00047C5.20946 1.00047 3.74815 1.61917 2.67373 2.71414C1.59995 3.80847 1 5.28873 1 6.82833C1 8.36792 1.59994 9.84819 2.67373 10.9425L10.9998 19.4278L19.3258 10.9425ZM19.3258 10.9425C19.3259 10.9425 19.3258 10.9426 19.3258 10.9425ZM11.7135 5.04513C12.9537 3.78129 13.821 3 15.2623 3C15.7504 3 16.2342 3.09799 16.6862 3.28886C17.1383 3.47975 17.5506 3.7604 17.8984 4.11506C18.2465 4.46959 18.5235 4.89156 18.7129 5.35733C18.9023 5.82314 19 6.32304 19 6.82833C19 7.33361 18.9023 7.83352 18.7129 8.29932C18.5235 8.7651 18.2463 9.18723 17.8983 9.54176L10.9998 16.5722L4.10128 9.54176C3.39826 8.82529 3 7.84959 3 6.82833C3 5.80707 3.39826 4.83136 4.10128 4.11489C4.80367 3.39907 5.75225 3.00047 6.73725 3.00047C8.26841 3.00047 9.04123 3.77656 10.286 5.04513L10.9998 5.77256L11.7135 5.04513Z" stroke="black" stroke-linecap="round"/>
</svg>
