<svg width="15" height="15" viewBox="0 0 15 15" fill="none" xmlns="http://www.w3.org/2000/svg">
<path d="M10.7724 14.6667C11.9295 14.6667 12.9988 14.2345 13.7834 13.45C14.6393 12.5941 15.0682 11.4221 14.9912 10.1498C14.9165 8.91557 14.3703 7.7308 13.4531 6.81368C12.6696 6.03006 11.7 5.5197 10.6492 5.33786C10.1224 5.24667 9.75336 4.87763 9.66216 4.35081C9.48021 3.29998 8.96996 2.33039 8.18634 1.54688C7.26922 0.629764 6.08445 0.0834795 4.85022 0.00884367C3.57805 -0.0682539 2.40592 0.360762 1.55002 1.21667C0.694111 2.07257 0.265206 3.24459 0.342193 4.51687C0.416828 5.7511 0.963113 6.93599 1.88023 7.85299C2.66374 8.63661 3.63333 9.14686 4.68405 9.32881C5.21098 9.42001 5.5799 9.78905 5.67121 10.3159C5.85316 11.3667 6.36341 12.3362 7.14703 13.1198C8.06415 14.0369 9.24892 14.5832 10.4832 14.6578C10.5798 14.6636 10.6772 14.6667 10.7724 14.6667ZM4.56175 0.859267C4.63996 0.859267 4.71885 0.861729 4.79819 0.86654C5.82272 0.928532 6.81022 1.38597 7.57873 2.15448C8.23636 2.812 8.66403 3.62214 8.81554 4.4974C8.96906 5.38441 9.61561 6.03096 10.5026 6.18448C11.3779 6.33599 12.188 6.76367 12.8455 7.42129C13.6141 8.1898 14.0715 9.1773 14.1335 10.2017C14.1955 11.2251 13.8553 12.163 13.1759 12.8425C12.5536 13.4648 11.7 13.8074 10.7724 13.8074C10.6943 13.8074 10.6145 13.8049 10.5351 13.8001C9.51054 13.7381 8.52304 13.2808 7.75453 12.5122C7.09701 11.8547 6.66934 11.0444 6.51783 10.1693C6.36419 9.28215 5.71776 8.63572 4.83064 8.48219C3.95548 8.33068 3.14534 7.90301 2.48772 7.24539C1.71921 6.47687 1.26177 5.48937 1.19978 4.46495C1.1379 3.44153 1.47795 2.50372 2.15751 1.82416C2.78447 1.19731 3.63098 0.859267 4.56175 0.859267Z" fill="#333333"/>
</svg>
