<svg width="11" height="13" viewBox="0 0 11 13" fill="none" xmlns="http://www.w3.org/2000/svg">
<path d="M1 3.36621H2.00848H10.0764" stroke="#333333" stroke-width="1.2" stroke-linecap="round" stroke-linejoin="round"/>
<path d="M3.52103 3.36658V2.35809C3.52103 2.09063 3.62728 1.83412 3.8164 1.64499C4.00553 1.45586 4.26204 1.34961 4.52951 1.34961H6.54648C6.81394 1.34961 7.07046 1.45586 7.25958 1.64499C7.44871 1.83412 7.55496 2.09063 7.55496 2.35809V3.36658M9.06769 3.36658V10.426C9.06769 10.6934 8.96144 10.9499 8.77231 11.1391C8.58318 11.3282 8.32667 11.4345 8.0592 11.4345H3.01678C2.74932 11.4345 2.49281 11.3282 2.30368 11.1391C2.11455 10.9499 2.0083 10.6934 2.0083 10.426V3.36658H9.06769Z" stroke="#333333" stroke-width="1.2" stroke-linecap="round" stroke-linejoin="round"/>
</svg>
