<svg width="20" height="20" viewBox="0 0 20 20" fill="none" xmlns="http://www.w3.org/2000/svg">
<path d="M18.396 0.827154L12.3406 6.88249C12.2226 6.35942 11.9736 5.79552 11.5957 5.198C11.3236 4.76768 10.8573 4.51076 10.3483 4.5108C10.178 4.5108 10.0127 4.54018 9.85755 4.59465C9.76826 4.00537 9.50412 3.36024 9.06779 2.67012C8.7957 2.23981 8.32943 1.98288 7.82044 1.98288C7.31144 1.98288 6.84518 2.23981 6.57301 2.67012C6.37348 2.98578 6.21022 3.29192 6.08279 3.58774C5.96219 3.39732 5.82514 3.21981 5.66907 3.06369C5.17258 2.56717 4.41453 2.20134 3.41598 1.97632C2.9193 1.86443 2.4079 2.01249 2.04798 2.37237C1.6881 2.73228 1.53997 3.24361 1.65194 3.74036C1.87692 4.73888 2.24278 5.49692 2.73927 5.99341C2.8952 6.14935 3.0725 6.28625 3.2627 6.40674C2.96743 6.53405 2.66194 6.69699 2.34691 6.89612C1.91659 7.16817 1.6597 7.63448 1.6597 8.14351C1.6597 8.65254 1.91662 9.11881 2.34694 9.39089C3.0371 9.82723 3.68223 10.0914 4.27147 10.1807C4.21704 10.3358 4.18765 10.5011 4.18765 10.6715C4.18765 11.1805 4.44457 11.6468 4.87489 11.9189C5.47245 12.2967 6.03631 12.5457 6.55938 12.6637L0.827285 18.3958C0.61291 18.6102 0.61291 18.9578 0.827285 19.1722C1.04166 19.3866 1.38929 19.3866 1.6037 19.1722L6.88933 13.8866C7.00756 14.1153 7.1854 14.3127 7.41192 14.4559C8.27708 15.0029 9.07176 15.2802 9.77395 15.2802C10.9746 15.2802 12.2249 14.4402 12.8507 13.9515L16.9612 18.0619C17.1755 18.2763 17.5232 18.2763 17.7376 18.0619C17.8448 17.9547 17.8984 17.8142 17.8984 17.6737C17.8984 17.5332 17.8448 17.3927 17.7376 17.2855L13.6273 13.1752C14.1158 12.5499 14.9571 11.2987 14.9571 10.0971C14.9571 9.39491 14.6797 8.60022 14.1328 7.73503C13.9896 7.50855 13.7922 7.3307 13.5635 7.21247L19.1724 1.60361C19.2796 1.49638 19.3332 1.35584 19.3332 1.21533C19.3332 1.07482 19.2796 0.934305 19.1724 0.827116C18.958 0.612742 18.6103 0.612742 18.396 0.827154ZM3.51573 5.217C3.17331 4.87458 2.89921 4.28049 2.72316 3.499C2.71623 3.46834 2.71324 3.43939 2.71324 3.4122C2.71324 3.27683 2.78765 3.18564 2.82447 3.14878C2.86874 3.10456 2.99138 3.0062 3.17466 3.04747C3.95618 3.22356 4.55023 3.49762 4.89265 3.84004C5.42151 4.3689 5.68 5.38682 5.78927 6.11358C5.06236 6.00428 4.04459 5.74582 3.51573 5.217ZM6.84678 5.03212C6.84678 4.54788 7.07308 3.93399 7.50113 3.25688C7.60161 3.09804 7.75795 3.08086 7.82047 3.08086C7.883 3.08086 8.0393 3.09803 8.1397 3.25685C8.5678 3.93399 8.79409 4.54784 8.79409 5.03212C8.79409 5.78006 8.25706 6.68262 7.82044 7.27376C7.3837 6.68244 6.84678 5.77995 6.84678 5.03212ZM2.93381 8.46281C2.77496 8.36237 2.75779 8.20603 2.75779 8.14354C2.75779 8.08105 2.77496 7.92472 2.93378 7.82428C3.61095 7.39618 4.22477 7.16989 4.70904 7.16989C5.45699 7.16989 6.35955 7.70688 6.95069 8.14351C6.35937 8.58028 5.45688 9.11717 4.70904 9.11717C4.22477 9.11717 3.61092 8.8909 2.93381 8.46281ZM5.46176 10.9908C5.30291 10.8903 5.28574 10.734 5.28574 10.6715C5.28574 10.609 5.30291 10.4527 5.46173 10.3522C6.13887 9.9241 6.75268 9.69784 7.23699 9.69784C7.77742 9.69784 8.39848 9.97824 8.92458 10.2985L7.61955 11.6035C7.48925 11.6301 7.36095 11.6451 7.23699 11.6451C6.75272 11.6451 6.13883 11.4189 5.46176 10.9908ZM12.0157 13.2084C11.4243 13.6452 10.5219 14.1821 9.77402 14.1821C9.28971 14.1821 8.67586 13.9558 7.99879 13.5277C7.83994 13.4273 7.82277 13.2709 7.82277 13.2084C7.82277 13.1459 7.83994 12.9896 7.99875 12.8892C8.6759 12.4611 9.28971 12.2348 9.77402 12.2348C10.522 12.2348 11.4245 12.7718 12.0157 13.2084ZM13.2046 8.32179C13.6327 8.99893 13.859 9.61278 13.859 10.0971C13.859 10.845 13.322 11.7476 12.8854 12.3387C12.4486 11.7474 11.9117 10.8449 11.9117 10.0971C11.9117 9.61282 12.138 8.99893 12.5661 8.32179C12.6665 8.16298 12.8229 8.1458 12.8853 8.1458C12.9479 8.14584 13.1042 8.16298 13.2046 8.32179ZM11.3221 7.56003C11.3221 7.68399 11.3071 7.81225 11.2805 7.94262L9.97545 9.24765C9.65513 8.72155 9.3748 8.10045 9.3748 7.56006C9.3748 7.07579 9.6011 6.4619 10.0292 5.7848C10.1296 5.62599 10.2859 5.60881 10.3484 5.60881C10.4109 5.60881 10.5672 5.62599 10.6677 5.7848C11.0957 6.4619 11.3221 7.07575 11.3221 7.56003Z" fill="#333333"/>
</svg>
